<svg width="320" height="56" viewBox="0 0 320 56" fill="none" xmlns="http://www.w3.org/2000/svg">
<line opacity="0.7" x1="4.37114e-08" y1="55.5" x2="320" y2="55.5" stroke="#545454"/>
<path d="M30.052 23.7139L31.8013 18.7114H39.245L40.985 23.7139H44.037L37.1794 4.81169H33.8576L27 23.7139H30.052ZM32.6387 16.3118L35.4487 8.2451H35.5976L38.4076 16.3118H32.6387Z" fill="white"/>
<path d="M46.5656 23.7139H49.3477V15.0565C49.3477 13.2014 50.7899 11.8631 52.7625 11.8631C53.3394 11.8631 53.9907 11.9646 54.2141 12.0292V9.38957C53.9349 9.35265 53.3859 9.32496 53.0324 9.32496C51.3575 9.32496 49.9246 10.2664 49.4035 11.7893H49.2546V9.53724H46.5656V23.7139Z" fill="white"/>
<path d="M62.1301 24C66.159 24 68.7923 21.0742 68.7923 16.6902C68.7923 12.2784 66.159 9.35265 62.1301 9.35265C58.1011 9.35265 55.4679 12.2784 55.4679 16.6902C55.4679 21.0742 58.1011 24 62.1301 24ZM62.1394 21.6834C59.5061 21.6834 58.2779 19.4037 58.2779 16.6809C58.2779 13.9674 59.5061 11.66 62.1394 11.66C64.754 11.66 65.9822 13.9674 65.9822 16.6809C65.9822 19.4037 64.754 21.6834 62.1394 21.6834Z" fill="white"/>
<path d="M80.9513 17.8346C80.9606 20.2436 79.1554 21.388 77.5922 21.388C75.8709 21.388 74.6799 20.1513 74.6799 18.2223V9.53724H71.8977V18.5545C71.8977 22.071 73.8424 23.8985 76.5873 23.8985C78.7367 23.8985 80.1976 22.7725 80.8582 21.2588H81.0071V23.7139H83.7427V9.53724H80.9513V17.8346Z" fill="white"/>
<path d="M90.263 15.2965C90.263 13.0353 91.6587 11.7431 93.5941 11.7431C95.4829 11.7431 96.6274 12.9706 96.6274 15.0288V23.7139H99.4096V14.6966C99.4096 11.1893 97.4649 9.35265 94.5432 9.35265C92.3938 9.35265 90.9888 10.3402 90.3281 11.8446H90.1513V9.53724H87.4809V23.7139H90.263V15.2965Z" fill="white"/>
<path d="M108.491 23.9908C111.096 23.9908 112.12 22.4125 112.622 21.508H112.855V23.7139H115.572V4.81169H112.79V11.8354H112.622C112.12 10.9586 111.171 9.35265 108.51 9.35265C105.058 9.35265 102.517 12.0569 102.517 16.6532C102.517 21.2404 105.02 23.9908 108.491 23.9908ZM109.105 21.6372C106.621 21.6372 105.327 19.4683 105.327 16.6256C105.327 13.8105 106.593 11.697 109.105 11.697C111.534 11.697 112.836 13.6629 112.836 16.6256C112.836 19.6067 111.506 21.6372 109.105 21.6372Z" fill="white"/>
<path d="M119.206 0.762979H121.203V6.38687H121.973V0.762979H123.97V0.0861429H119.206V0.762979Z" fill="white"/>
<path d="M125.79 3.54416C125.79 2.71965 126.32 2.25202 127.043 2.25202C127.731 2.25202 128.147 2.68273 128.147 3.43341V6.38687H128.879V3.38418C128.879 2.16895 128.228 1.5998 127.254 1.5998C126.503 1.5998 126.075 1.91052 125.852 2.39969H125.79V0.0861429H125.058V6.38687H125.79V3.54416Z" fill="white"/>
<path d="M132.216 6.48532C133.183 6.48532 133.89 6.00538 134.114 5.29163L133.407 5.09473C133.22 5.58698 132.789 5.8331 132.216 5.8331C131.356 5.8331 130.764 5.2824 130.73 4.27022H134.188V3.96257C134.188 2.20279 133.134 1.5998 132.141 1.5998C130.851 1.5998 129.995 2.6089 129.995 4.06102C129.995 5.51314 130.838 6.48532 132.216 6.48532ZM130.73 3.64261C130.779 2.90732 131.304 2.25202 132.141 2.25202C132.935 2.25202 133.444 2.84271 133.444 3.64261H130.73Z" fill="white"/>
<path d="M142.026 0.0861429V4.19639C142.026 5.11934 141.387 5.78387 140.326 5.78387C139.265 5.78387 138.626 5.11934 138.626 4.19639V0.0861429H137.857V4.25792C137.857 5.55006 138.831 6.49763 140.326 6.49763C141.821 6.49763 142.795 5.55006 142.795 4.25792V0.0861429H142.026Z" fill="white"/>
<path d="M144.467 6.4361C144.774 6.4361 145.025 6.1869 145.025 5.88232C145.025 5.57775 144.774 5.32855 144.467 5.32855C144.16 5.32855 143.908 5.57775 143.908 5.88232C143.908 6.1869 144.16 6.4361 144.467 6.4361Z" fill="white"/>
<path d="M149.912 1.66133H150.656C150.622 0.710678 149.738 0 148.51 0C147.294 0 146.339 0.701449 146.339 1.75977C146.339 2.6089 146.959 3.11345 147.951 3.39649L148.733 3.618C149.403 3.80259 149.998 4.03641 149.998 4.66402C149.998 5.35316 149.328 5.80849 148.448 5.80849C147.691 5.80849 147.021 5.47622 146.959 4.76247H146.165C146.239 5.79618 147.083 6.49763 148.448 6.49763C149.912 6.49763 150.743 5.69773 150.743 4.67632C150.743 3.49494 149.614 3.11345 148.956 2.94116L148.311 2.76888C147.84 2.64582 147.083 2.39969 147.083 1.72286C147.083 1.11986 147.641 0.676836 148.485 0.676836C149.254 0.676836 149.837 1.03987 149.912 1.66133Z" fill="white"/>
<path d="M152.442 6.4361C152.749 6.4361 153 6.1869 153 5.88232C153 5.57775 152.749 5.32855 152.442 5.32855C152.135 5.32855 151.883 5.57775 151.883 5.88232C151.883 6.1869 152.135 6.4361 152.442 6.4361Z" fill="white"/>
</svg>
